<?xml version="1.0" encoding="UTF-8"?>
<svg id="Layer_1" data-name="Layer 1" xmlns="http://www.w3.org/2000/svg" viewBox="0 0 27.05 26.19">
  <defs>
    <style>
      .cls-1 {
        fill: #419499;
        font-size: 19px;
      }

      .cls-1, .cls-2 {
        font-family: MyriadPro-Regular, 'Myriad Pro';
      }

      .cls-2 {
        fill: #4dc8ef;
        font-size: 17px;
      }

      .cls-3 {
        fill: #0e2a4d;
        stroke: #469fa4;
        stroke-miterlimit: 10;
      }
    </style>
  </defs>
  <path class="cls-3" d="M16.62,25.15l-1.01-.53c-1.32-.7-2.9-.7-4.23-.01l-1.01,.53c-3.35,1.74-7.25-1.11-6.6-4.83l.19-1.06c.26-1.48-.23-3-1.31-4.05l-.76-.74C-.83,11.81,.68,7.2,4.42,6.67l1.09-.15c1.48-.21,2.77-1.14,3.44-2.48l.5-1.01c1.68-3.38,6.51-3.36,8.17,.02l.5,1.01c.66,1.35,1.94,2.28,3.43,2.5l1.09,.16c3.75,.55,5.23,5.16,2.5,7.79l-.76,.74c-1.08,1.05-1.58,2.56-1.33,4.04l.18,1.06c.63,3.72-3.28,6.56-6.62,4.8Z"/>
  <text class="cls-1" transform="translate(10.09 20.09)"><tspan x="0" y="0">J</tspan></text>
  <text class="cls-2" transform="translate(10.17 19.49)"><tspan x="0" y="0">J</tspan></text>
</svg>