<svg width="140" height="140" viewBox="0 0 140 140" fill="none" xmlns="http://www.w3.org/2000/svg">
<g clip-path="url(#clip0_0_1)">
<path fill-rule="evenodd" clip-rule="evenodd" d="M70 138C107.555 138 138 107.555 138 70C138 32.4446 107.555 2 70 2C32.4446 2 2 32.4446 2 70C2 107.555 32.4446 138 70 138ZM70 140C108.66 140 140 108.66 140 70C140 31.3401 108.66 0 70 0C31.3401 0 0 31.3401 0 70C0 108.66 31.3401 140 70 140Z" fill="url(#paint0_linear_0_1)"/>
<path d="M95 54.5C95 56.9853 92.9853 59 90.5 59C88.0147 59 86 56.9853 86 54.5C86 52.0147 88.0147 50 90.5 50C92.9853 50 95 52.0147 95 54.5Z" fill="url(#paint1_radial_0_1)"/>
<path d="M46.9993 61.2927C46.1593 61.2927 45.4033 61.1487 44.7313 60.8607C44.0593 60.5607 43.5313 60.1407 43.1473 59.6007C42.7633 59.0607 42.5713 58.4307 42.5713 57.7107H44.7673C44.8153 58.2507 45.0253 58.6947 45.3973 59.0427C45.7813 59.3907 46.3153 59.5647 46.9993 59.5647C47.7073 59.5647 48.2593 59.3967 48.6553 59.0607C49.0513 58.7127 49.2493 58.2687 49.2493 57.7287C49.2493 57.3087 49.1233 56.9667 48.8713 56.7027C48.6313 56.4387 48.3253 56.2347 47.9533 56.0907C47.5933 55.9467 47.0893 55.7907 46.4413 55.6227C45.6253 55.4067 44.9593 55.1907 44.4433 54.9747C43.9393 54.7467 43.5073 54.3987 43.1473 53.9307C42.7873 53.4627 42.6073 52.8387 42.6073 52.0587C42.6073 51.3387 42.7873 50.7087 43.1473 50.1687C43.5073 49.6287 44.0113 49.2147 44.6593 48.9267C45.3073 48.6387 46.0573 48.4947 46.9093 48.4947C48.1213 48.4947 49.1113 48.8007 49.8793 49.4127C50.6593 50.0127 51.0913 50.8407 51.1753 51.8967H48.9073C48.8713 51.4407 48.6553 51.0507 48.2593 50.7267C47.8633 50.4027 47.3413 50.2407 46.6933 50.2407C46.1053 50.2407 45.6253 50.3907 45.2533 50.6907C44.8813 50.9907 44.6953 51.4227 44.6953 51.9867C44.6953 52.3707 44.8093 52.6887 45.0373 52.9407C45.2773 53.1807 45.5773 53.3727 45.9373 53.5167C46.2973 53.6607 46.7893 53.8167 47.4133 53.9847C48.2413 54.2127 48.9133 54.4407 49.4293 54.6687C49.9573 54.8967 50.4013 55.2507 50.7613 55.7307C51.1333 56.1987 51.3193 56.8287 51.3193 57.6207C51.3193 58.2567 51.1453 58.8567 50.7973 59.4207C50.4613 59.9847 49.9633 60.4407 49.3033 60.7887C48.6553 61.1247 47.8873 61.2927 46.9993 61.2927ZM62.8306 55.9647C62.8306 56.3367 62.8066 56.6727 62.7586 56.9727H55.1806C55.2406 57.7647 55.5346 58.4007 56.0626 58.8807C56.5906 59.3607 57.2386 59.6007 58.0066 59.6007C59.1106 59.6007 59.8906 59.1387 60.3466 58.2147H62.5606C62.2606 59.1267 61.7146 59.8767 60.9226 60.4647C60.1426 61.0407 59.1706 61.3287 58.0066 61.3287C57.0586 61.3287 56.2066 61.1187 55.4506 60.6987C54.7066 60.2667 54.1186 59.6667 53.6866 58.8987C53.2666 58.1187 53.0566 57.2187 53.0566 56.1987C53.0566 55.1787 53.2606 54.2847 53.6686 53.5167C54.0886 52.7367 54.6706 52.1367 55.4146 51.7167C56.1706 51.2967 57.0346 51.0867 58.0066 51.0867C58.9426 51.0867 59.7766 51.2907 60.5086 51.6987C61.2406 52.1067 61.8106 52.6827 62.2186 53.4267C62.6266 54.1587 62.8306 55.0047 62.8306 55.9647ZM60.6886 55.3167C60.6766 54.5607 60.4066 53.9547 59.8786 53.4987C59.3506 53.0427 58.6966 52.8147 57.9166 52.8147C57.2086 52.8147 56.6026 53.0427 56.0986 53.4987C55.5946 53.9427 55.2946 54.5487 55.1986 55.3167H60.6886ZM73.94 55.9647C73.94 56.3367 73.916 56.6727 73.868 56.9727H66.29C66.35 57.7647 66.644 58.4007 67.172 58.8807C67.7 59.3607 68.348 59.6007 69.116 59.6007C70.22 59.6007 71 59.1387 71.456 58.2147H73.67C73.37 59.1267 72.824 59.8767 72.032 60.4647C71.252 61.0407 70.28 61.3287 69.116 61.3287C68.168 61.3287 67.316 61.1187 66.56 60.6987C65.816 60.2667 65.228 59.6667 64.796 58.8987C64.376 58.1187 64.166 57.2187 64.166 56.1987C64.166 55.1787 64.37 54.2847 64.778 53.5167C65.198 52.7367 65.78 52.1367 66.524 51.7167C67.28 51.2967 68.144 51.0867 69.116 51.0867C70.052 51.0867 70.886 51.2907 71.618 51.6987C72.35 52.1067 72.92 52.6827 73.328 53.4267C73.736 54.1587 73.94 55.0047 73.94 55.9647ZM71.798 55.3167C71.786 54.5607 71.516 53.9547 70.988 53.4987C70.46 53.0427 69.806 52.8147 69.026 52.8147C68.318 52.8147 67.712 53.0427 67.208 53.4987C66.704 53.9427 66.404 54.5487 66.308 55.3167H71.798ZM42.026 71.6567V84.1667H39.974V75.5987L36.158 84.1667H34.736L30.902 75.5987V84.1667H28.85V71.6567H31.064L35.456 81.4667L39.83 71.6567H42.026ZM53.651 74.2487L47.567 88.8287H45.443L47.459 84.0047L43.553 74.2487H45.839L48.629 81.8087L51.527 74.2487H53.651ZM59.1914 77.8847C59.1914 76.6607 59.4734 75.5627 60.0374 74.5907C60.6134 73.6187 61.3874 72.8627 62.3594 72.3227C63.3434 71.7707 64.4174 71.4947 65.5814 71.4947C66.9134 71.4947 68.0954 71.8247 69.1274 72.4847C70.1714 73.1327 70.9274 74.0567 71.3954 75.2567H68.9294C68.6054 74.5967 68.1554 74.1047 67.5794 73.7807C67.0034 73.4567 66.3374 73.2947 65.5814 73.2947C64.7534 73.2947 64.0154 73.4807 63.3674 73.8527C62.7194 74.2247 62.2094 74.7587 61.8374 75.4547C61.4774 76.1507 61.2974 76.9607 61.2974 77.8847C61.2974 78.8087 61.4774 79.6187 61.8374 80.3147C62.2094 81.0107 62.7194 81.5507 63.3674 81.9347C64.0154 82.3067 64.7534 82.4927 65.5814 82.4927C66.3374 82.4927 67.0034 82.3307 67.5794 82.0067C68.1554 81.6827 68.6054 81.1907 68.9294 80.5307H71.3954C70.9274 81.7307 70.1714 82.6547 69.1274 83.3027C68.0954 83.9507 66.9134 84.2747 65.5814 84.2747C64.4054 84.2747 63.3314 84.0047 62.3594 83.4647C61.3874 82.9127 60.6134 82.1507 60.0374 81.1787C59.4734 80.2067 59.1914 79.1087 59.1914 77.8847ZM78.0993 84.3287C77.1633 84.3287 76.3173 84.1187 75.5613 83.6987C74.8053 83.2667 74.2113 82.6667 73.7793 81.8987C73.3473 81.1187 73.1313 80.2187 73.1313 79.1987C73.1313 78.1907 73.3533 77.2967 73.7973 76.5167C74.2413 75.7367 74.8473 75.1367 75.6153 74.7167C76.3833 74.2967 77.2413 74.0867 78.1893 74.0867C79.1373 74.0867 79.9953 74.2967 80.7633 74.7167C81.5313 75.1367 82.1373 75.7367 82.5813 76.5167C83.0253 77.2967 83.2473 78.1907 83.2473 79.1987C83.2473 80.2067 83.0193 81.1007 82.5633 81.8807C82.1073 82.6607 81.4833 83.2667 80.6913 83.6987C79.9113 84.1187 79.0473 84.3287 78.0993 84.3287ZM78.0993 82.5467C78.6273 82.5467 79.1193 82.4207 79.5753 82.1687C80.0433 81.9167 80.4213 81.5387 80.7093 81.0347C80.9973 80.5307 81.1413 79.9187 81.1413 79.1987C81.1413 78.4787 81.0033 77.8727 80.7273 77.3807C80.4513 76.8767 80.0853 76.4987 79.6293 76.2467C79.1733 75.9947 78.6813 75.8687 78.1533 75.8687C77.6253 75.8687 77.1333 75.9947 76.6773 76.2467C76.2333 76.4987 75.8793 76.8767 75.6153 77.3807C75.3513 77.8727 75.2193 78.4787 75.2193 79.1987C75.2193 80.2667 75.4893 81.0947 76.0293 81.6827C76.5813 82.2587 77.2713 82.5467 78.0993 82.5467ZM84.5918 79.1627C84.5918 78.1667 84.7958 77.2847 85.2038 76.5167C85.6238 75.7487 86.1878 75.1547 86.8958 74.7347C87.6158 74.3027 88.4138 74.0867 89.2898 74.0867C89.9378 74.0867 90.5738 74.2307 91.1978 74.5187C91.8338 74.7947 92.3378 75.1667 92.7098 75.6347V70.8467H94.7798V84.1667H92.7098V82.6727C92.3738 83.1527 91.9058 83.5487 91.3058 83.8607C90.7178 84.1727 90.0398 84.3287 89.2718 84.3287C88.4078 84.3287 87.6158 84.1127 86.8958 83.6807C86.1878 83.2367 85.6238 82.6247 85.2038 81.8447C84.7958 81.0527 84.5918 80.1587 84.5918 79.1627ZM92.7098 79.1987C92.7098 78.5147 92.5658 77.9207 92.2778 77.4167C92.0018 76.9127 91.6358 76.5287 91.1798 76.2647C90.7238 76.0007 90.2318 75.8687 89.7038 75.8687C89.1758 75.8687 88.6838 76.0007 88.2278 76.2647C87.7718 76.5167 87.3998 76.8947 87.1118 77.3987C86.8358 77.8907 86.6978 78.4787 86.6978 79.1627C86.6978 79.8467 86.8358 80.4467 87.1118 80.9627C87.3998 81.4787 87.7718 81.8747 88.2278 82.1507C88.6958 82.4147 89.1878 82.5467 89.7038 82.5467C90.2318 82.5467 90.7238 82.4147 91.1798 82.1507C91.6358 81.8867 92.0018 81.5027 92.2778 80.9987C92.5658 80.4827 92.7098 79.8827 92.7098 79.1987ZM106.565 78.9647C106.565 79.3367 106.541 79.6727 106.493 79.9727H98.915C98.975 80.7647 99.269 81.4007 99.797 81.8807C100.325 82.3607 100.973 82.6007 101.741 82.6007C102.845 82.6007 103.625 82.1387 104.081 81.2147H106.295C105.995 82.1267 105.449 82.8767 104.657 83.4647C103.877 84.0407 102.905 84.3287 101.741 84.3287C100.793 84.3287 99.941 84.1187 99.185 83.6987C98.441 83.2667 97.853 82.6667 97.421 81.8987C97.001 81.1187 96.791 80.2187 96.791 79.1987C96.791 78.1787 96.995 77.2847 97.403 76.5167C97.823 75.7367 98.405 75.1367 99.149 74.7167C99.905 74.2967 100.769 74.0867 101.741 74.0867C102.677 74.0867 103.511 74.2907 104.243 74.6987C104.975 75.1067 105.545 75.6827 105.953 76.4267C106.361 77.1587 106.565 78.0047 106.565 78.9647ZM104.423 78.3167C104.411 77.5607 104.141 76.9547 103.613 76.4987C103.085 76.0427 102.431 75.8147 101.651 75.8147C100.943 75.8147 100.337 76.0427 99.833 76.4987C99.329 76.9427 99.029 77.5487 98.933 78.3167H104.423Z" fill="url(#paint2_linear_0_1)"/>
<circle cx="90.5" cy="54.5" r="4.5" fill="url(#paint3_radial_0_1)"/>
<mask id="path-5-outside-1_0_1" maskUnits="userSpaceOnUse" x="78" y="47.7142" width="25" height="14" fill="black">
<rect fill="white" x="78" y="47.7142" width="25" height="14"/>
<path fill-rule="evenodd" clip-rule="evenodd" d="M99.7489 54.1713C97.2527 57.0795 93.9271 58.8541 90.2758 58.8541C86.7199 58.8541 83.4729 57.1711 81 54.3969C83.4962 51.4887 86.8218 49.7142 90.4731 49.7142C94.0291 49.7142 97.2761 51.3972 99.7489 54.1713Z"/>
</mask>
<path d="M99.7489 54.1713L101.267 55.4739L102.406 54.1464L101.242 52.8405L99.7489 54.1713ZM81 54.3969L79.4824 53.0943L78.3429 54.4218L79.507 55.7278L81 54.3969ZM98.2313 52.8687C96.0425 55.4188 93.2409 56.8541 90.2758 56.8541V60.8541C94.6134 60.8541 98.4629 58.7403 101.267 55.4739L98.2313 52.8687ZM90.2758 56.8541C87.3871 56.8541 84.656 55.4927 82.493 53.0661L79.507 55.7278C82.2898 58.8495 86.0527 60.8541 90.2758 60.8541V56.8541ZM82.5176 55.6995C84.7065 53.1494 87.5081 51.7142 90.4731 51.7142V47.7142C86.1356 47.7142 82.286 49.8279 79.4824 53.0943L82.5176 55.6995ZM90.4731 51.7142C93.3619 51.7142 96.0929 53.0756 98.256 55.5021L101.242 52.8405C98.4592 49.7188 94.6963 47.7142 90.4731 47.7142V51.7142Z" fill="url(#paint4_radial_0_1)" mask="url(#path-5-outside-1_0_1)"/>
</g>
<defs>
<linearGradient id="paint0_linear_0_1" x1="93.5405" y1="-125.781" x2="186.413" y2="101.942" gradientUnits="userSpaceOnUse">
<stop offset="0.00887753" stop-color="#DEF9FA"/>
<stop offset="0.1723" stop-color="#BEF3F5"/>
<stop offset="0.4204" stop-color="#9DEDF0"/>
<stop offset="0.5512" stop-color="#7DE7EB"/>
<stop offset="0.7154" stop-color="#5CE1E6"/>
<stop offset="1" stop-color="#33BBCF"/>
</linearGradient>
<radialGradient id="paint1_radial_0_1" cx="0" cy="0" r="1" gradientUnits="userSpaceOnUse" gradientTransform="translate(82 44) rotate(50.9645) scale(23.817)">
<stop offset="0.53125" stop-color="#BFEAF0"/>
<stop offset="1" stop-color="#BFEAF0" stop-opacity="0"/>
</radialGradient>
<linearGradient id="paint2_linear_0_1" x1="83.6243" y1="-5.04948" x2="108.466" y2="90.291" gradientUnits="userSpaceOnUse">
<stop offset="0.00887753" stop-color="#DEF9FA"/>
<stop offset="0.1723" stop-color="#BEF3F5"/>
<stop offset="0.4204" stop-color="#9DEDF0"/>
<stop offset="0.5512" stop-color="#7DE7EB"/>
<stop offset="0.7154" stop-color="#5CE1E6"/>
<stop offset="1" stop-color="#33BBCF"/>
</linearGradient>
<radialGradient id="paint3_radial_0_1" cx="0" cy="0" r="1" gradientUnits="userSpaceOnUse" gradientTransform="translate(90.5 54.5) rotate(-137.291) scale(8.8459)">
<stop offset="0.247481" stop-color="#51878F"/>
<stop offset="0.734375" stop-color="white" stop-opacity="0"/>
</radialGradient>
<radialGradient id="paint4_radial_0_1" cx="0" cy="0" r="1" gradientUnits="userSpaceOnUse" gradientTransform="translate(84.5 48) rotate(54.2726) scale(35.107 72.0159)">
<stop stop-color="#72C4C7"/>
<stop offset="1" stop-color="#72C4C7" stop-opacity="0"/>
</radialGradient>
<clipPath id="clip0_0_1">
<rect width="140" height="140" fill="white"/>
</clipPath>
</defs>
</svg>
