<svg width="378" height="378" viewBox="0 0 378 378" fill="none" xmlns="http://www.w3.org/2000/svg">
<g clip-path="url(#clip0_4_2)">
<path d="M212.5 101.512L284.785 101.512L270.5 180.5L250.5 207.5L237 252.5L220.5 281L148.272 259.879L212.5 101.512Z" fill="#3A686A"/>
<ellipse cx="128" cy="268" rx="53" ry="56" fill="#3A686A"/>
<ellipse cx="186" cy="240" rx="53" ry="56" fill="#3A686A"/>
<ellipse cx="260" cy="126" rx="53" ry="56" fill="#3A686A"/>
<rect x="181.325" y="179" width="16.426" height="96" transform="rotate(62.7226 181.325 179)" fill="#3A686A"/>
<path d="M211.554 270L210 290L145.281 321.097L138 306.372L211.554 270Z" fill="#3A686A"/>
<path d="M328.775 213.5L218.5 283L232.5 263L328.775 213.5Z" fill="#3A686A"/>
<path d="M295.5 220L234 258L238 247L295.5 220Z" fill="#3A686A"/>
<path d="M202.5 89L200 59.5L210 64.5L226.5 66L242.5 64.5L250 58.5L257 41.5L261 30L263.25 33.5L267 41.5V52.5L269 58.5L273.5 64.5L281 75.5L236 144L176.5 182.5L202.5 89Z" fill="#3A686A"/>
<path d="M186.5 196C186.5 204.837 169.889 204.5 160.5 204.5C151.111 204.5 167.5 181.5 173.5 172.5C181 163.5 200.111 163.5 209.5 163.5C218.889 163.5 186.5 187.163 186.5 196Z" fill="#3A686A"/>
<path d="M208.5 108.512L280.785 108.512L266.5 187.5L246.5 214.5L233 259.5L216.5 288L144.272 266.879L208.5 108.512Z" fill="#54BDC4"/>
<ellipse cx="124" cy="275" rx="53" ry="56" fill="#54BDC4"/>
<ellipse cx="182" cy="247" rx="53" ry="56" fill="#54BDC4"/>
<ellipse cx="256" cy="133" rx="53" ry="56" fill="#54BDC4"/>
<rect x="177.325" y="186" width="16.426" height="96" transform="rotate(62.7226 177.325 186)" fill="#54BDC4"/>
<path d="M207.554 277L206 297L141.281 328.097L134 313.372L207.554 277Z" fill="#54BDC4"/>
<path d="M324.775 220.5L214.5 290L228.5 270L324.775 220.5Z" fill="#54BDC4"/>
<path d="M291.5 227L230 265L234 254L291.5 227Z" fill="#54BDC4"/>
<path d="M198.5 96L196 66.5L206 71.5L222.5 73L238.5 71.5L246 65.5L253 48.5L257 37L259.25 40.5L263 48.5V59.5L265 65.5L269.5 71.5L277 82.5L232 151L172.5 189.5L198.5 96Z" fill="#54BDC4"/>
<path d="M182.5 203C182.5 211.837 165.889 211.5 156.5 211.5C147.111 211.5 163.5 188.5 169.5 179.5C177 170.5 196.111 170.5 205.5 170.5C214.889 170.5 182.5 194.163 182.5 203Z" fill="#54BDC4"/>
</g>
<defs>
<clipPath id="clip0_4_2">
<rect width="378" height="378" fill="white"/>
</clipPath>
</defs>
</svg>
